<?xml version="1.0" encoding="UTF-8" standalone="no"?>
<svg width="742px" height="109px" version="1.1" xmlns="http://www.w3.org/2000/svg" xml:space="preserve" style="fill-rule:evenodd;clip-rule:evenodd;stroke-linejoin:round;stroke-miterlimit:2;">
    <g transform="matrix(4.16667,0,0,4.16667,0,0)">
        <path d="M9.216,22.314C9.366,22.704 9.576,22.765 9.727,22.765C9.877,22.765 10.086,22.704 10.237,22.314L17.622,3.13L19.454,3.13L11.558,23.004C11.348,23.545 10.747,24.386 9.727,24.386C9.457,24.386 8.406,24.325 7.896,23.004L0,3.13L1.831,3.13L9.216,22.314Z" style="fill:white;fill-rule:nonzero;"/>
        <path d="M30.385,15.318C31.076,15.318 31.045,14.479 31.045,14.269C31.045,12.707 30.505,11.657 29.964,11.026C28.824,9.675 27.263,9.644 25.852,9.644C24.26,9.644 22.549,9.705 21.438,11.565C20.808,12.617 20.718,13.758 20.688,15.318L30.385,15.318ZM24.501,24.145C23.21,24.145 21.528,23.815 20.297,22.193C19.066,20.603 19.006,18.591 19.006,16.25C19.006,14.028 19.127,11.326 21.138,9.644C22.58,8.443 24.531,8.233 26.122,8.233C27.233,8.233 28.884,8.384 30.175,9.134C30.805,9.525 32.727,10.846 32.727,14.179C32.727,14.628 32.696,15.709 32.066,16.25C31.585,16.67 30.835,16.729 30.385,16.729L20.688,16.729C20.658,17.661 20.718,19.132 20.958,19.972C21.318,21.263 22.399,22.734 24.501,22.734L32.306,22.734L32.306,24.145L24.501,24.145Z" style="fill:white;fill-rule:nonzero;"/>
        <path d="M35.435,13.697C35.435,12.076 35.645,10.665 36.846,9.525C37.506,8.895 38.617,8.233 40.749,8.233L41.83,8.233L41.83,9.644L40.869,9.644C39.999,9.644 38.677,9.734 37.807,10.755C37.146,11.565 36.996,12.768 36.996,14.058L36.996,24.145L35.435,24.145L35.435,13.697Z" style="fill:white;fill-rule:nonzero;"/>
        <path d="M43.668,22.734L52.795,22.734C53.726,22.734 54.356,22.404 54.657,21.983C54.927,21.593 55.047,20.693 55.047,20.152C55.047,19.252 54.687,18.741 54.447,18.502C53.936,18.021 53.005,17.781 50.694,17.24L47.932,16.61C45.5,16.039 44.629,15.259 44.269,14.838C43.579,14.058 43.398,13.067 43.398,12.196C43.398,11.147 43.638,10.335 44.209,9.615C45.2,8.323 46.551,8.233 48.052,8.233L55.677,8.233L55.677,9.644L47.421,9.644C47.061,9.644 46.161,9.675 45.65,10.185C45.109,10.726 45.08,11.657 45.08,12.076C45.08,12.617 45.14,13.548 45.74,14.148C46.28,14.689 47.932,15.108 48.472,15.229L51.354,15.89C53.275,16.339 54.657,16.64 55.587,17.391C56.578,18.171 56.729,19.102 56.729,20.152C56.729,21.263 56.518,22.734 55.347,23.545C54.566,24.086 53.486,24.145 52.855,24.145L43.668,24.145L43.668,22.734Z" style="fill:white;fill-rule:nonzero;"/>
        <path d="M65.429,24.145C64.078,24.145 62.577,24.205 61.586,23.214C60.595,22.254 60.505,20.693 60.505,18.802L60.505,9.644L58.314,9.644L58.314,8.233L60.505,8.233L60.505,3.13L62.066,3.13L62.066,8.233L66.45,8.233L66.45,9.644L62.066,9.644L62.066,18.471C62.066,19.822 61.977,21.654 62.967,22.344C63.328,22.584 64.018,22.734 65.789,22.734L66.63,22.734L66.63,24.145L65.429,24.145Z" style="fill:white;fill-rule:nonzero;"/>
        <path d="M76.077,6.432L76.077,4.061L77.758,4.061L77.758,6.432L76.077,6.432ZM71.874,6.432L71.874,4.061L73.555,4.061L73.555,6.432L71.874,6.432ZM72.084,16.039C71.153,16.039 70.583,16.49 70.342,16.819C69.952,17.33 69.832,18.171 69.832,19.282C69.832,20.243 69.922,21.383 70.462,22.044C70.793,22.434 71.363,22.734 72.024,22.734L78.449,22.734C78.628,22.734 78.929,22.734 79.139,22.555C79.349,22.374 79.349,22.224 79.349,22.014L79.349,16.039L72.084,16.039ZM77.157,8.233C78.238,8.233 79.319,8.654 79.95,9.344C80.79,10.245 80.91,11.565 80.91,12.527L80.91,22.044C80.91,22.464 80.88,23.214 80.37,23.694C79.89,24.145 79.109,24.145 78.568,24.145L72.444,24.145C71.543,24.145 70.433,24.115 69.562,23.425C68.241,22.344 68.151,20.182 68.151,19.222C68.151,17.93 68.331,16.429 69.472,15.469C70.342,14.749 71.543,14.628 72.444,14.628L79.349,14.628L79.349,12.257C79.349,11.747 79.139,10.846 78.749,10.365C78.418,9.975 77.818,9.644 77.067,9.644L69.352,9.644L69.352,8.233L77.157,8.233Z" style="fill:white;fill-rule:nonzero;"/>
        <path d="M84.065,13.697C84.065,12.076 84.275,10.665 85.476,9.525C86.137,8.895 87.248,8.233 89.379,8.233L90.46,8.233L90.46,9.644L89.5,9.644C88.629,9.644 87.308,9.734 86.437,10.755C85.776,11.565 85.627,12.768 85.627,14.058L85.627,24.145L84.065,24.145L84.065,13.697Z" style="fill:white;fill-rule:nonzero;"/>
        <path d="M102.969,24.145L96.514,18.201C96.154,17.871 95.283,17 95.283,15.919C95.283,15.049 95.764,14.388 96.544,13.638L102.309,8.233L104.411,8.233L97.505,14.718C97.085,15.139 96.964,15.589 96.964,15.859C96.964,16.4 97.385,16.97 97.805,17.36L105.131,24.145L102.969,24.145ZM92.551,24.145L92.551,3.13L94.112,3.13L94.112,24.145L92.551,24.145Z" style="fill:white;fill-rule:nonzero;"/>
        <path d="M117.059,15.318C117.749,15.318 117.719,14.479 117.719,14.269C117.719,12.707 117.179,11.657 116.638,11.026C115.497,9.675 113.937,9.644 112.525,9.644C110.935,9.644 109.223,9.705 108.112,11.565C107.481,12.617 107.392,13.758 107.361,15.318L117.059,15.318ZM111.175,24.145C109.883,24.145 108.201,23.815 106.971,22.193C105.74,20.603 105.68,18.591 105.68,16.25C105.68,14.028 105.8,11.326 107.812,9.644C109.253,8.443 111.204,8.233 112.795,8.233C113.906,8.233 115.558,8.384 116.849,9.134C117.479,9.525 119.4,10.846 119.4,14.179C119.4,14.628 119.37,15.709 118.739,16.25C118.259,16.67 117.508,16.729 117.059,16.729L107.361,16.729C107.332,17.661 107.392,19.132 107.632,19.972C107.991,21.263 109.072,22.734 111.175,22.734L118.979,22.734L118.979,24.145L111.175,24.145Z" style="fill:white;fill-rule:nonzero;"/>
        <path d="M122.108,13.697C122.108,12.076 122.318,10.665 123.52,9.525C124.179,8.895 125.291,8.233 127.422,8.233L128.503,8.233L128.503,9.644L127.543,9.644C126.672,9.644 125.351,9.734 124.48,10.755C123.819,11.565 123.67,12.768 123.67,14.058L123.67,24.145L122.108,24.145L122.108,13.697Z" style="fill:white;fill-rule:nonzero;"/>
        <path d="M167.48,11.876C166.194,11.876 165.156,12.918 165.156,14.202C165.156,15.486 166.194,16.527 167.48,16.527C168.767,16.527 169.806,15.486 169.806,14.202C169.806,12.918 168.767,11.876 167.48,11.876ZM167.48,19.332C166.196,19.332 165.155,20.373 165.155,21.657C165.155,22.941 166.196,23.982 167.48,23.982C168.767,23.982 169.806,22.941 169.806,21.657C169.806,20.373 168.767,19.332 167.48,19.332ZM167.478,6.774C171.08,6.774 176.62,26 177.212,26C177.808,26 173.567,0.446 167.481,0.446C166.471,0.446 165.511,1.155 164.613,2.333C163.604,3.659 163.026,4.935 161.658,7.971C160.314,10.951 157.038,16.885 154.962,16.885C151.327,16.885 145.821,0.446 145.229,0.446C144.635,0.446 148.872,26 154.958,26C155.969,26 156.929,25.291 157.827,24.114C158.837,22.789 159.628,21.197 160.69,18.415C161.754,15.635 165.012,6.774 167.478,6.774ZM160.593,18.682C160.625,18.594 160.658,18.505 160.69,18.415C160.658,18.505 160.625,18.592 160.593,18.682Z" style="fill:white;fill-rule:nonzero;"/>
    </g>
</svg>
