<?xml version="1.0" encoding="utf-8"?>
<!-- Generator: Adobe Illustrator 15.1.0, SVG Export Plug-In . SVG Version: 6.00 Build 0)  -->
<!DOCTYPE svg PUBLIC "-//W3C//DTD SVG 1.1//EN" "http://www.w3.org/Graphics/SVG/1.1/DTD/svg11.dtd">
<svg version="1.1" xmlns="http://www.w3.org/2000/svg" xmlns:xlink="http://www.w3.org/1999/xlink" x="0px" y="0px" width="310px"
	 height="125px" viewBox="0 0 310 125" enable-background="new 0 0 310 125" xml:space="preserve">
<g id="BACKGROUND">
</g>
<g id="DESIGNED_BY_FREEPIK">
</g>
<g id="OBJECTS">
	<g>
		<g>
			<path fill="#FF0000" d="M307.697,27.746c5.934-2.724-20.573,1.252-54.384-13.775C219.503-1.057,198.572,0.017,168.25,0.017
				c-30.322,0-48.569,12.075-64.938,21.199c-16.369,9.124-0.268,6.172-51.79,12.075S0,58.515,0,58.515s13.389-17.244,69.478-17.244
				S274.881,42.807,307.697,27.746z M104.361,29.849C109.955,25.21,132.38,7.627,152.82,5.92c23.569-1.968,54.875-2.862,73.302,4.83
				c18.426,7.692,21.031,16.77,21.031,16.77l-142.379,3.404C104.194,30.938,103.915,30.219,104.361,29.849z"/>
			<path fill="#FF0000" d="M80.093,45.614C27.502,41.03,4.583,58.515,4.583,58.515s30.892-14.638,76.474-6.388
				c45.583,8.249,103.591,6.064,133.166,3.256c57.174-5.428,95.291-24.418,95.291-24.418
				C192.512,56.47,132.684,50.197,80.093,45.614z"/>
			<path fill="#FF0000" d="M111.158,29.258h9.697c1.202,0,2.315-0.821,2.508-2.007c0.246-1.512-0.914-2.817-2.379-2.817h-5.79
				c-1.204,0-2.354,0.497-3.177,1.374l-1.61,1.714C109.788,28.179,110.255,29.258,111.158,29.258z"/>
			<path fill="#FF0000" d="M304.689,35.964c-30.759,15.198-61.517,17.852-61.517,17.852
				C292.627,53.575,304.689,35.964,304.689,35.964z"/>
		</g>
		<g>
			<rect y="74.516" fill="none" width="252.345" height="55.761"/>
			<path d="M21.121,105.675l-1.441-5.485H10.17l-1.481,5.485H0l9.549-29.389H20.1l9.669,29.389H21.121z M18.038,93.704l-1.261-4.805
				c-0.294-1.067-0.65-2.449-1.071-4.144c-0.42-1.695-0.697-2.909-0.831-3.644c-0.12,0.681-0.357,1.802-0.71,3.363
				c-0.354,1.562-1.138,4.638-2.353,9.229H18.038z"/>
			<path d="M57.816,76.407v17.617c0,3.831-1.084,6.797-3.253,8.898c-2.169,2.103-5.295,3.153-9.379,3.153
				c-3.991,0-7.057-1.021-9.199-3.063c-2.142-2.042-3.213-4.978-3.213-8.809V76.407h7.948v17.177c0,2.069,0.387,3.57,1.161,4.504
				c0.774,0.935,1.915,1.401,3.423,1.401c1.615,0,2.786-0.463,3.514-1.391c0.727-0.928,1.091-2.446,1.091-4.555V76.407H57.816z"/>
			<path d="M76.875,105.675h-7.908V82.873H61.82v-6.466h22.182v6.466h-7.127V105.675z"/>
			<path d="M115.573,91.001c0,4.925-1.208,8.668-3.624,11.231c-2.416,2.562-5.953,3.844-10.61,3.844
				c-4.591,0-8.111-1.288-10.56-3.864c-2.45-2.576-3.674-6.326-3.674-11.251c0-4.871,1.218-8.591,3.653-11.161
				s5.976-3.854,10.621-3.854c4.658,0,8.188,1.275,10.59,3.824C114.372,82.319,115.573,86.063,115.573,91.001z M95.433,91.001
				c0,5.659,1.968,8.488,5.906,8.488c2.002,0,3.486-0.687,4.455-2.062c0.967-1.375,1.451-3.517,1.451-6.426
				c0-2.923-0.49-5.082-1.472-6.476c-0.98-1.395-2.446-2.092-4.394-2.092C97.415,82.433,95.433,85.289,95.433,91.001z"/>
			<path d="M145.702,90.42c0,4.885-1.345,8.648-4.034,11.291c-2.69,2.643-6.47,3.964-11.341,3.964h-9.469V76.407h10.13
				c4.698,0,8.325,1.201,10.881,3.604C144.424,82.413,145.702,85.883,145.702,90.42z M137.494,90.701
				c0-2.683-0.531-4.671-1.591-5.966c-1.062-1.294-2.673-1.942-4.835-1.942h-2.302v16.396h1.762c2.402,0,4.164-0.697,5.285-2.092
				S137.494,93.57,137.494,90.701z"/>
			<path d="M158.855,95.025v10.65h-7.908V76.407h9.589c7.954,0,11.932,2.883,11.932,8.648c0,3.39-1.655,6.013-4.965,7.868
				l8.528,12.752h-8.969l-6.206-10.65H158.855z M158.855,89.079h1.481c2.763,0,4.144-1.221,4.144-3.664
				c0-2.015-1.355-3.023-4.064-3.023h-1.562V89.079z"/>
			<path d="M178.694,105.675V76.407h7.948v29.269H178.694z"/>
			<path d="M209.404,76.407h8.849l-9.589,29.269h-9.309l-9.549-29.269h8.889l3.984,14.834c0.827,3.297,1.281,5.592,1.361,6.887
				c0.093-0.934,0.28-2.102,0.561-3.503s0.527-2.502,0.741-3.303L209.404,76.407z"/>
			<path d="M238.793,105.675h-17.377V76.407h17.377v6.346h-9.469v4.604h8.769v6.346h-8.769v5.525h9.469V105.675z"/>
		</g>
		<g>
			<rect x="8.077" y="112.611" fill="none" width="272.377" height="11.703"/>
			<path d="M50.768,113.301h2.929c1.32,0,2.289,0.224,2.907,0.672c0.619,0.448,0.928,1.125,0.928,2.031
				c0,0.619-0.189,1.134-0.566,1.545c-0.377,0.412-0.929,0.676-1.655,0.793v0.043c0.852,0.127,1.479,0.396,1.881,0.807
				c0.402,0.412,0.603,0.985,0.603,1.721c0,0.983-0.327,1.741-0.979,2.271c-0.653,0.531-1.578,0.796-2.776,0.796h-3.272V113.301z
				 M51.513,118.057h2.352c1.003,0,1.732-0.167,2.188-0.5c0.455-0.333,0.683-0.855,0.683-1.567c0-0.711-0.257-1.227-0.771-1.548
				c-0.514-0.322-1.28-0.482-2.297-0.482h-2.155V118.057z M51.513,118.714v4.609h2.513c1.977,0,2.966-0.804,2.966-2.411
				c0-1.466-1.042-2.199-3.126-2.199H51.513z"/>
			<path d="M65.983,123.981h-5.836v-10.68h5.836v0.687h-5.091v4.04h4.807v0.687h-4.807v4.58h5.091V123.981z"/>
			<path d="M74.296,121.227c0,0.891-0.328,1.597-0.982,2.118c-0.655,0.521-1.526,0.782-2.612,0.782
				c-1.305,0-2.306-0.144-3.002-0.431v-0.745c0.769,0.326,1.75,0.489,2.944,0.489c0.876,0,1.571-0.201,2.085-0.603
				c0.514-0.402,0.771-0.929,0.771-1.582c0-0.404-0.085-0.739-0.255-1.004c-0.171-0.266-0.448-0.508-0.833-0.727
				s-0.95-0.455-1.695-0.708c-1.091-0.375-1.844-0.78-2.261-1.216c-0.417-0.436-0.625-1.017-0.625-1.742
				c0-0.799,0.313-1.45,0.938-1.954c0.626-0.504,1.431-0.756,2.415-0.756c1.003,0,1.945,0.19,2.827,0.57l-0.27,0.643
				c-0.887-0.37-1.734-0.555-2.542-0.555c-0.789,0-1.417,0.183-1.885,0.548c-0.468,0.365-0.701,0.862-0.701,1.49
				c0,0.395,0.072,0.718,0.215,0.972s0.378,0.481,0.705,0.683c0.326,0.202,0.886,0.444,1.68,0.727
				c0.833,0.288,1.458,0.566,1.877,0.836c0.419,0.271,0.725,0.577,0.917,0.92S74.296,120.74,74.296,121.227z"/>
			<path d="M79.337,123.981h-0.752v-9.979h-3.47v-0.701h7.692v0.701h-3.47V123.981z"/>
			<path d="M93.42,120.211h-4.339l-1.49,3.77h-0.826l4.295-10.724h0.475l4.208,10.724h-0.84L93.42,120.211z M89.352,119.54h3.82
				l-1.454-3.85c-0.122-0.302-0.268-0.721-0.438-1.256c-0.132,0.467-0.275,0.891-0.431,1.271L89.352,119.54z"/>
			<path d="M105.108,113.301v6.91c0,1.228-0.355,2.187-1.066,2.878s-1.702,1.037-2.973,1.037c-1.237,0-2.202-0.347-2.896-1.041
				c-0.694-0.694-1.041-1.662-1.041-2.903v-6.881h0.752v6.91c0,1.028,0.285,1.828,0.855,2.4s1.375,0.858,2.418,0.858
				c1.018,0,1.807-0.281,2.367-0.844s0.84-1.343,0.84-2.341v-6.983H105.108z"/>
			<path d="M110.799,123.981h-0.752v-9.979h-3.47v-0.701h7.692v0.701h-3.47V123.981z"/>
			<path d="M124.831,118.626c0,1.695-0.424,3.035-1.271,4.021c-0.847,0.986-2.016,1.479-3.506,1.479
				c-1.485,0-2.652-0.493-3.499-1.479c-0.847-0.986-1.271-2.332-1.271-4.036c0-1.7,0.427-3.038,1.282-4.014
				c0.855-0.976,2.022-1.464,3.503-1.464c1.49,0,2.656,0.491,3.499,1.472C124.41,115.586,124.831,116.927,124.831,118.626z
				 M116.094,118.626c0,1.529,0.341,2.711,1.023,3.546c0.682,0.835,1.661,1.253,2.937,1.253c1.286,0,2.268-0.414,2.948-1.242
				c0.679-0.828,1.019-2.014,1.019-3.558c0-1.539-0.34-2.719-1.019-3.539c-0.68-0.821-1.657-1.231-2.933-1.231
				c-1.271,0-2.251,0.414-2.94,1.242C116.439,115.926,116.094,117.102,116.094,118.626z"/>
			<path d="M131.982,123.981l-3.981-9.862h-0.059c0.039,0.604,0.059,1.223,0.059,1.855v8.006h-0.716v-10.68h1.154l3.784,9.394h0.044
				l3.784-9.394h1.125v10.68h-0.752v-8.094c0-0.565,0.029-1.149,0.088-1.753h-0.059l-3.996,9.847H131.982z"/>
			<path d="M149.171,118.626c0,1.695-0.424,3.035-1.271,4.021c-0.847,0.986-2.016,1.479-3.506,1.479
				c-1.485,0-2.652-0.493-3.499-1.479c-0.847-0.986-1.271-2.332-1.271-4.036c0-1.7,0.427-3.038,1.282-4.014
				c0.855-0.976,2.022-1.464,3.503-1.464c1.49,0,2.656,0.491,3.499,1.472C148.75,115.586,149.171,116.927,149.171,118.626z
				 M140.434,118.626c0,1.529,0.341,2.711,1.023,3.546c0.682,0.835,1.661,1.253,2.937,1.253c1.286,0,2.268-0.414,2.948-1.242
				c0.679-0.828,1.019-2.014,1.019-3.558c0-1.539-0.34-2.719-1.019-3.539c-0.68-0.821-1.657-1.231-2.933-1.231
				c-1.271,0-2.251,0.414-2.94,1.242C140.779,115.926,140.434,117.102,140.434,118.626z"/>
			<path d="M154.409,123.981h-0.752v-9.979h-3.47v-0.701h7.692v0.701h-3.47V123.981z"/>
			<path d="M159.463,123.981v-10.68h0.745v10.68H159.463z"/>
			<path d="M169.544,113.301h0.811l-3.996,10.68h-0.658l-3.981-10.68h0.796l2.688,7.269c0.409,1.096,0.684,1.918,0.826,2.469
				c0.097-0.365,0.29-0.933,0.577-1.702L169.544,113.301z"/>
			<path d="M177.704,123.981h-5.836v-10.68h5.836v0.687h-5.091v4.04h4.807v0.687h-4.807v4.58h5.091V123.981z"/>
			<path d="M189.903,121.227c0,0.891-0.328,1.597-0.982,2.118c-0.655,0.521-1.526,0.782-2.612,0.782
				c-1.305,0-2.306-0.144-3.002-0.431v-0.745c0.769,0.326,1.75,0.489,2.944,0.489c0.876,0,1.571-0.201,2.085-0.603
				c0.514-0.402,0.771-0.929,0.771-1.582c0-0.404-0.085-0.739-0.255-1.004c-0.171-0.266-0.448-0.508-0.833-0.727
				s-0.95-0.455-1.695-0.708c-1.091-0.375-1.844-0.78-2.261-1.216c-0.417-0.436-0.625-1.017-0.625-1.742
				c0-0.799,0.313-1.45,0.938-1.954c0.626-0.504,1.431-0.756,2.415-0.756c1.003,0,1.945,0.19,2.827,0.57l-0.27,0.643
				c-0.887-0.37-1.734-0.555-2.542-0.555c-0.789,0-1.417,0.183-1.885,0.548c-0.468,0.365-0.701,0.862-0.701,1.49
				c0,0.395,0.072,0.718,0.215,0.972s0.378,0.481,0.705,0.683c0.326,0.202,0.886,0.444,1.68,0.727
				c0.833,0.288,1.458,0.566,1.877,0.836c0.419,0.271,0.725,0.577,0.917,0.92S189.903,120.74,189.903,121.227z"/>
			<path d="M201.138,118.626c0,1.695-0.424,3.035-1.271,4.021c-0.847,0.986-2.016,1.479-3.506,1.479
				c-1.485,0-2.652-0.493-3.499-1.479c-0.847-0.986-1.271-2.332-1.271-4.036c0-1.7,0.427-3.038,1.282-4.014
				c0.855-0.976,2.022-1.464,3.503-1.464c1.49,0,2.656,0.491,3.499,1.472C200.716,115.586,201.138,116.927,201.138,118.626z
				 M192.401,118.626c0,1.529,0.341,2.711,1.023,3.546c0.682,0.835,1.661,1.253,2.937,1.253c1.286,0,2.268-0.414,2.948-1.242
				c0.679-0.828,1.019-2.014,1.019-3.558c0-1.539-0.34-2.719-1.019-3.539c-0.68-0.821-1.657-1.231-2.933-1.231
				c-1.271,0-2.251,0.414-2.94,1.242C192.746,115.926,192.401,117.102,192.401,118.626z"/>
			<path d="M211.445,113.301v6.91c0,1.228-0.355,2.187-1.066,2.878s-1.702,1.037-2.973,1.037c-1.237,0-2.202-0.347-2.896-1.041
				c-0.694-0.694-1.041-1.662-1.041-2.903v-6.881h0.752v6.91c0,1.028,0.285,1.828,0.855,2.4s1.375,0.858,2.418,0.858
				c1.018,0,1.807-0.281,2.367-0.844s0.84-1.343,0.84-2.341v-6.983H211.445z"/>
			<path d="M215.098,119.328v4.653h-0.745v-10.68h2.542c1.325,0,2.303,0.245,2.937,0.734c0.633,0.49,0.95,1.226,0.95,2.21
				c0,0.716-0.189,1.32-0.566,1.812c-0.378,0.492-0.951,0.845-1.721,1.059l2.9,4.865h-0.892l-2.754-4.653H215.098z M215.098,118.685
				h2.038c0.901,0,1.6-0.201,2.096-0.603c0.497-0.401,0.745-0.994,0.745-1.778c0-0.813-0.244-1.405-0.73-1.775
				s-1.281-0.555-2.381-0.555h-1.768V118.685z"/>
			<path d="M227.801,113.82c-1.339,0-2.394,0.429-3.163,1.286c-0.77,0.857-1.154,2.031-1.154,3.521c0,1.524,0.363,2.708,1.089,3.55
				c0.726,0.842,1.763,1.264,3.112,1.264c0.896,0,1.719-0.114,2.469-0.343v0.657c-0.706,0.249-1.587,0.373-2.644,0.373
				c-1.5,0-2.681-0.484-3.543-1.454c-0.862-0.969-1.293-2.323-1.293-4.062c0-1.086,0.206-2.043,0.617-2.871
				c0.412-0.828,1.003-1.467,1.775-1.917c0.772-0.451,1.669-0.676,2.692-0.676c1.042,0,1.975,0.195,2.798,0.584l-0.299,0.672
				C229.476,114.015,228.658,113.82,227.801,113.82z"/>
			<path d="M238.371,123.981h-5.836v-10.68h5.836v0.687h-5.091v4.04h4.807v0.687h-4.807v4.58h5.091V123.981z"/>
		</g>
		<rect x="247.514" y="76.465" fill="#FF0000" width="61.017" height="29.076"/>
		<g>
			<rect x="252.836" y="83.379" fill="none" width="55.896" height="16.429"/>
			<path fill="#FFFFFF" d="M254.418,97.817c0-0.638,0.26-0.957,0.781-0.957c0.534,0,0.801,0.319,0.801,0.957
				s-0.267,0.957-0.801,0.957C254.678,98.774,254.418,98.455,254.418,97.817z"/>
			<path fill="#FFFFFF" d="M265.707,84.995c-1.791,0-3.2,0.573-4.229,1.719s-1.543,2.715-1.543,4.707
				c0,2.038,0.485,3.62,1.455,4.746s2.357,1.689,4.16,1.689c1.198,0,2.298-0.153,3.301-0.459v0.879
				c-0.944,0.332-2.123,0.498-3.535,0.498c-2.005,0-3.584-0.648-4.736-1.943s-1.729-3.105-1.729-5.43
				c0-1.452,0.275-2.731,0.825-3.838s1.341-1.961,2.373-2.563s2.231-0.903,3.599-0.903c1.393,0,2.64,0.26,3.74,0.781l-0.4,0.898
				C267.947,85.255,266.853,84.995,265.707,84.995z"/>
			<path fill="#FFFFFF" d="M284.037,91.42c0,2.266-0.566,4.058-1.699,5.376s-2.695,1.978-4.688,1.978
				c-1.986,0-3.545-0.659-4.678-1.978s-1.699-3.117-1.699-5.396c0-2.272,0.571-4.061,1.714-5.366s2.704-1.958,4.683-1.958
				c1.992,0,3.551,0.656,4.678,1.968S284.037,89.148,284.037,91.42z M272.357,91.42c0,2.044,0.456,3.625,1.367,4.741
				s2.22,1.675,3.926,1.675c1.719,0,3.032-0.553,3.94-1.66s1.362-2.692,1.362-4.756c0-2.057-0.454-3.634-1.362-4.731
				s-2.215-1.646-3.921-1.646c-1.699,0-3.009,0.553-3.931,1.66S272.357,89.383,272.357,91.42z"/>
			<path fill="#FFFFFF" d="M293.598,98.579l-5.322-13.184h-0.078c0.052,0.807,0.078,1.634,0.078,2.48v10.703h-0.957V84.301h1.543
				l5.059,12.559h0.059l5.059-12.559h1.504v14.277h-1.006v-10.82c0-0.755,0.039-1.537,0.117-2.344h-0.078l-5.342,13.164H293.598z"/>
		</g>
	</g>
</g>
</svg>
